<svg version="1.1" xmlns="http://www.w3.org/2000/svg" xmlns:xlink="http://www.w3.org/1999/xlink" viewbox="0 0 106 33" width="105.45" height="32.996">
  <symbol id="gopa-logo-path" viewBox="0 0 106 33" preserveAspectRatio="xMidYMid meet">
    <title>GOPA Logo</title>
    <g style="fill: #114f40">
      <!-- G -->
      <path class="green" d="M0.092,10.957c0.822,-6.523 6.631,-10.956 14.685,-10.956c3.294,-0.022 6.557,0.649 9.576,1.97l0,4.874c-2.826,-1.388 -5.925,-2.133 -9.072,-2.18c-5.827,0 -8.503,3.091 -9.216,6.292c-0.075,0.348 -0.129,0.701 -0.161,1.055l-5.904,0c0.024,-0.36 0.048,-0.705 0.092,-1.055"/>
      <path style="fill: #114f40" d="M0.472,16.074l6.11,0c1.296,2.701 4.269,4.361 8.194,4.361c1.46,0.033 2.909,-0.272 4.232,-0.892l0.176,-0.064l0,-3.384l-3.631,0l0,-4.051l9.317,0l0,9.842c-1.82,1.809 -6.285,3.218 -10.245,3.218c-7.173,0 -12.548,-3.573 -14.154,-9.029"/>
      <!-- O -->
      <path class="green" d="M28.999,10.957c1.034,-5.348 5.817,-10.363 13.85,-10.363c9.1,0 14.008,6.475 14.008,12.55c0,6.088 -4.907,12.559 -14.008,12.559c-7.344,0 -11.971,-4.187 -13.49,-9c-0.368,-1.15 -0.558,-2.35 -0.561,-3.558c0.005,-0.734 0.072,-1.465 0.201,-2.188m6.21,2.188c0,4.478 2.994,7.352 7.64,7.352c4.546,0 7.601,-2.944 7.601,-7.352c0,-4.389 -3.055,-7.344 -7.601,-7.344c-4.646,0 -7.64,2.89 -7.64,7.344"/>
      <!-- P -->
      <path d="M60.669,25.374l0,-24.445l10.844,0c1.585,-0.037 3.152,0.351 4.536,1.126c2.146,1.236 3.471,3.532 3.469,6.009c0.032,2.525 -1.294,4.883 -3.469,6.167c-1.37,0.76 -2.919,1.14 -4.485,1.1l-5.207,0l0,10.043l-5.688,0Zm6.216,-14.616l2.631,0c3.18,0 3.607,-1.325 3.607,-2.631c0,-1.698 -0.689,-2.612 -4.309,-2.612l-1.929,0l0,5.243Z"/>
      <!-- A -->
      <path d="M98.571,25.373c-0.125,-0.305 -2.045,-4.956 -2.045,-4.956l-11.534,0c0,0 -1.751,4.625 -1.867,4.956l-6.018,0c0.288,-0.72 9.727,-24.12 9.853,-24.444l6.866,0c0.058,0.15 2.416,5.45 4.924,11.083l-6.318,0c-0.851,-2.016 -1.716,-4.12 -1.944,-4.654c-0.388,1.058 -3.045,8.081 -3.288,8.705l4.957,0l0,0.01l8.397,0c2.146,4.824 3.999,8.996 4.133,9.3l-6.116,0Z"/>
    </g>
    <!-- WORLDWIDE CONSULTANTS -->
    <path style="fill:#959698" d="M102.588,32.609l0,-0.832c0.374,0.305 0.836,0.482 1.319,0.504c0.363,0 0.561,-0.138 0.561,-0.36c0,-0.626 -1.958,-0.398 -1.958,-1.781c0,-0.667 0.584,-1.101 1.466,-1.101c0.451,0 0.897,0.102 1.303,0.298l0,0.742c-0.375,-0.198 -0.789,-0.314 -1.213,-0.339c-0.341,0 -0.571,0.128 -0.571,0.315c0,0.576 1.955,0.414 1.955,1.764c0,0.738 -0.617,1.165 -1.474,1.165c-0.488,0.007 -0.969,-0.122 -1.388,-0.372m-29.534,-1.335l0,-2.186l0.962,0l0,2.204c0,0.009 0,0.018 0,0.026c0,0.474 0.39,0.864 0.864,0.864c0.028,0 0.057,-0.001 0.085,-0.004c0.03,0.003 0.061,0.005 0.091,0.005c0.485,0 0.883,-0.399 0.883,-0.884c0,-0.025 -0.001,-0.05 -0.003,-0.075l0,-2.135l0.975,0l0,2.175c0,1.28 -0.883,1.717 -1.935,1.717c-1.121,0 -1.921,-0.514 -1.921,-1.707m-4.417,1.336l0,-0.832c0.373,0.304 0.834,0.481 1.314,0.504c0.37,0 0.559,-0.137 0.559,-0.36c0,-0.625 -1.957,-0.398 -1.957,-1.78c0,-0.668 0.572,-1.102 1.479,-1.102c0.447,0.001 0.889,0.103 1.292,0.298l0,0.743c-0.375,-0.202 -0.791,-0.318 -1.216,-0.34c-0.343,0 -0.555,0.129 -0.555,0.315c0,0.576 1.944,0.414 1.944,1.765c0,0.737 -0.607,1.164 -1.466,1.164c-0.491,0.008 -0.974,-0.12 -1.396,-0.371m-11.62,-1.601c0.034,-1.097 0.946,-1.98 2.043,-1.98c0.056,0 0.111,0.002 0.166,0.006c0.05,-0.003 0.1,-0.005 0.15,-0.005c1.097,0 2.01,0.882 2.048,1.979c-0.042,1.097 -0.956,1.977 -2.055,1.977c-0.047,0 -0.095,-0.002 -0.143,-0.005c-0.053,0.004 -0.106,0.006 -0.16,0.006c-1.097,0 -2.01,-0.881 -2.049,-1.978m0.974,0c0,0.013 0,0.027 0,0.04c0,0.622 0.511,1.133 1.133,1.133c0.034,0 0.069,-0.001 0.103,-0.004c0.03,0.002 0.059,0.003 0.089,0.003c0.619,0 1.128,-0.509 1.128,-1.127c0,-0.015 -0.001,-0.03 -0.001,-0.045c0.001,-0.016 0.001,-0.033 0.001,-0.049c0,-0.623 -0.512,-1.135 -1.135,-1.135c-0.027,0 -0.055,0.001 -0.082,0.003c-0.032,-0.003 -0.064,-0.004 -0.096,-0.004c-0.626,0 -1.141,0.515 -1.141,1.141c0,0.014 0.001,0.029 0.001,0.044m-6.264,0.009c0.05,-1.109 0.976,-1.994 2.086,-1.994c0.073,0 0.146,0.004 0.218,0.011c0.49,-0.018 0.975,0.097 1.404,0.334l0,0.852c-0.404,-0.237 -0.86,-0.371 -1.328,-0.392c-0.051,-0.006 -0.101,-0.009 -0.152,-0.009c-0.662,0 -1.214,0.527 -1.244,1.188c0.029,0.655 0.576,1.178 1.232,1.178c0.045,0 0.091,-0.003 0.136,-0.008c0.494,-0.019 0.975,-0.163 1.397,-0.42l0,0.838c-0.459,0.259 -0.98,0.391 -1.507,0.381c-0.074,0.008 -0.148,0.012 -0.222,0.012c-1.092,0 -1.996,-0.885 -2.02,-1.977m-18.571,1.963l-1.205,-2.515l-1.19,2.515l-0.411,0l-1.707,-3.892l1.036,0l0.9,2.124l0.985,-2.124l0.781,0l0.979,2.124l0.908,-2.124l1.026,0l-1.692,3.892l-0.41,0Zm-24.319,-1.974c0.038,-1.098 0.952,-1.98 2.05,-1.98c0.054,0 0.108,0.002 0.162,0.007c0.051,-0.004 0.103,-0.006 0.155,-0.006c1.098,0 2.012,0.882 2.05,1.979c-0.044,1.098 -0.959,1.977 -2.058,1.977c-0.049,0 -0.098,-0.001 -0.147,-0.005c-0.055,0.005 -0.11,0.007 -0.165,0.007c-1.097,0 -2.01,-0.882 -2.047,-1.979m0.985,0c-0.001,0.014 -0.001,0.027 -0.001,0.041c0,0.62 0.511,1.131 1.132,1.131c0.031,0 0.062,-0.001 0.093,-0.003c0.028,0.002 0.056,0.003 0.084,0.003c0.618,0 1.126,-0.508 1.126,-1.126c0,-0.015 -0.001,-0.031 -0.001,-0.046c0,-0.017 0.001,-0.033 0.001,-0.05c0,-0.622 -0.512,-1.133 -1.133,-1.133c-0.026,0 -0.052,0 -0.077,0.002c-0.029,-0.002 -0.057,-0.003 -0.086,-0.003c-0.625,0 -1.139,0.514 -1.139,1.139c0,0.015 0,0.03 0.001,0.045m-3.948,1.972l-1.188,-2.515l-1.194,2.515l-0.412,0l-1.702,-3.892l1.019,0l0.914,2.124l0.983,-2.124l0.777,0l0.987,2.124l0.918,-2.124l1.002,0l-1.691,3.892l-0.413,0Zm92.952,-0.049l0,-3.148l-1.398,0l0,-0.694l3.754,0l0,0.694l-1.383,0l0,3.148l-0.973,0Zm-3.722,0l-2.127,-2.467l0,2.467l-0.961,0l0,-3.843l0.883,0l2.046,2.349l0,-2.349l0.962,0l0,3.843l-0.803,0Zm-5.502,0l-0.32,-0.764l-1.719,0l-0.293,0.764l-1.008,0l1.557,-3.843l1.109,0l1.717,3.843l-1.043,0Zm-1.784,-1.44l1.187,0l-0.625,-1.495l-0.562,1.495Zm-4.337,1.44l0,-3.148l-1.396,0l0,-0.694l3.756,0l0,0.694l-1.398,0l0,3.148l-0.962,0Zm-4.824,0l0,-3.843l0.962,0l0,3.141l1.98,0l0,0.702l-2.942,0Zm-12.52,0l-2.127,-2.467l0,2.467l-0.96,0l0,-3.843l0.885,0l2.06,2.349l0,-2.349l0.959,0l0,3.843l-0.817,0Zm-21.249,0l0,-3.843l2.807,0l0,0.694l-1.845,0l0,0.817l1.768,0l0,0.7l-1.768,0l0,0.93l1.895,0l0,0.702l-2.857,0Zm-5.472,0l0,-3.843l1.692,0c0.075,-0.009 0.151,-0.014 0.227,-0.014c1.048,0 1.911,0.863 1.911,1.911c0,0.008 0,0.016 0,0.024c0,1.111 -0.706,1.922 -2.241,1.922l-1.589,0Zm0.959,-0.702l0.621,0c0.04,0.004 0.08,0.006 0.12,0.006c0.625,0 1.139,-0.514 1.139,-1.139c0,-0.03 -0.001,-0.06 -0.004,-0.091c0.003,-0.032 0.005,-0.065 0.005,-0.098c0,-0.621 -0.512,-1.133 -1.134,-1.133c-0.042,0 -0.084,0.002 -0.126,0.007l-0.621,0l0,2.448Zm-3.744,-3.141l0.976,0l0,3.844l-0.976,0l0,-3.844Zm-12.616,3.843l0,-3.843l1.701,0c0.075,-0.009 0.151,-0.014 0.227,-0.014c1.049,0 1.912,0.863 1.912,1.912c0,0.007 0,0.015 0,0.023c0,1.111 -0.709,1.922 -2.239,1.922l-1.601,0Zm0.959,-0.702l0.631,0c0.04,0.004 0.08,0.006 0.12,0.006c0.626,0 1.141,-0.514 1.141,-1.14c0,-0.03 -0.002,-0.06 -0.004,-0.09c0.003,-0.032 0.004,-0.065 0.004,-0.097c0,-0.622 -0.512,-1.134 -1.134,-1.134c-0.042,0 -0.085,0.002 -0.127,0.007l-0.631,0l0,2.448Zm-5.341,0.702l0,-3.843l0.946,0l0,3.141l1.98,0l0,0.702l-2.926,0Zm-2.443,0c-0.411,-0.824 -0.571,-1.558 -1.08,-1.558l-0.28,0l0,1.558l-0.959,0l0,-3.843l1.714,0c0.041,-0.005 0.082,-0.007 0.123,-0.007c0.615,0 1.127,0.492 1.151,1.106c0.001,0.424 -0.267,0.804 -0.667,0.946c0.404,0.193 0.513,0.669 1.052,1.8l-1.054,-0.002Zm-1.362,-2.272l0.516,0c0.266,0 0.529,-0.116 0.529,-0.442c0,-0.288 -0.195,-0.439 -0.562,-0.439l-0.482,0l-0.001,0.881Z"/>
  </symbol>
  <use xlink:href="#gopa-logo-path"/>
</svg>